
 ######           ######                       
 #     # #  ####  #     # ###### #####  #    # 
 #     # # #    # #     # #      #    # ##  ## 
 ######  # #      ######  #####  #    # # ## # 
 #     # # #  ### #       #      #####  #    # 
 #     # # #    # #       #      #   #  #    # 
 ######  #  ####  #       ###### #    # #    # 
                                               


Plot

On a secluded family farm, a mother suffers a psychotic break due to postpartum
depression, forcing the eldest son to protect his sibling from the mother they have
always known and loved.


General
Complete name : Baby Blues 2008 DVDRip Xvid BigPerm LKRGBB_LKRG.avi
Format : AVI
Format/Info : Audio Video Interleave
File size : 1 011 MiB
Duration : 1h 16mn
Overall bit rate : 1 837 Kbps

Video
ID : 0
Format : MPEG-4 Visual
Format profile : Advanced Simple@L5
Format settings, BVOP : Yes
Format settings, QPel : No
Format settings, GMC : No warppoints
Format settings, Matrix : Default (H.263)
Codec ID : XVID
Codec ID/Hint : XviD
Duration : 1h 16mn
Bit rate : 1 384 Kbps
Width : 704 pixels
Height : 396 pixels
Display aspect ratio : 16:9
Frame rate : 23.976 fps
Color space : YUV
Chroma subsampling : 4:2:0
Bit depth : 8 bits
Scan type : Progressive
Compression mode : Lossy
Bits/(Pixel*Frame) : 0.207
Stream size : 761 MiB (75%)
Writing library : XviD 1.2.1 (UTC 2008-12-04)

Audio
ID : 1
Format : AC-3
Format/Info : Audio Coding 3
Mode extension : CM (complete main)
Codec ID : 2000
Duration : 1h 16mn
Bit rate mode : Constant
Bit rate : 448 Kbps
Channel(s) : 6 channels
Channel positions : Front: L C R, Side: L R, LFE
Sampling rate : 48.0 KHz
Bit depth : 16 bits
Compression mode : Lossy
Video delay : 42ms
Stream size : 247 MiB (24%)
Alignment : Split accross interleaves
Interleave, duration : 500 ms (11.99 video frames)
Interleave, preload duration : 500 ms
Language : English
 
http://www.imdb.com/title/tt0972359/





================================== 
http://thepiratebay.org/user/hiest
==================================





Screen Shots:
 
http://leetleech.org/images/62458173402856908322.png
 
http://leetleech.org/images/88170500405865477956.png
 
http://leetleech.org/images/18530143239880737176.png
 
http://leetleech.org/images/91715893815810702323.png
 
http://leetleech.org/images/57159636003403100886.png


 ######           ######                       
 #     # #  ####  #     # ###### #####  #    # 
 #     # # #    # #     # #      #    # ##  ## 
 ######  # #      ######  #####  #    # # ## # 
 #     # # #  ### #       #      #####  #    # 
 #     # # #    # #       #      #   #  #    # 
 ######  #  ####  #       ###### #    # #    # 
                                               

